<mxfile host="app.diagrams.net" modified="2021-01-05T09:23:29.609Z" agent="5.0 (Windows NT 10.0; Win64; x64) AppleWebKit/537.36 (KHTML, like Gecko) Chrome/87.0.4280.88 Safari/537.36" etag="dKivxOQp7Tl9opvx3XTp" version="14.1.8" type="github">
  <diagram id="kFIFrGbDQsV5YvxOIdgo" name="Page-1">
    <mxGraphModel dx="1422" dy="772" grid="1" gridSize="10" guides="1" tooltips="1" connect="1" arrows="1" fold="1" page="1" pageScale="1" pageWidth="1169" pageHeight="827" math="0" shadow="0">
      <root>
        <mxCell id="0" />
        <mxCell id="1" parent="0" />
        <mxCell id="HmWRv2XXiwyb1ps0FjEp-30" value="" style="rounded=1;whiteSpace=wrap;html=1;dashed=1;strokeColor=#00CC00;sketch=1;" parent="1" vertex="1">
          <mxGeometry x="162" y="634" width="340" height="126" as="geometry" />
        </mxCell>
        <mxCell id="HmWRv2XXiwyb1ps0FjEp-17" value="" style="rounded=1;whiteSpace=wrap;html=1;dashed=1;strokeColor=#00CC00;sketch=1;" parent="1" vertex="1">
          <mxGeometry x="550" y="180" width="610" height="510" as="geometry" />
        </mxCell>
        <mxCell id="HmWRv2XXiwyb1ps0FjEp-15" value="" style="rounded=1;whiteSpace=wrap;html=1;fillColor=#ffe6cc;strokeColor=#d79b00;sketch=1;glass=0;" parent="1" vertex="1">
          <mxGeometry x="610" y="319" width="220" height="190" as="geometry" />
        </mxCell>
        <mxCell id="HmWRv2XXiwyb1ps0FjEp-5" value="" style="rounded=1;whiteSpace=wrap;html=1;fillColor=#dae8fc;strokeColor=#6c8ebf;sketch=1;" parent="1" vertex="1">
          <mxGeometry x="939" y="234" width="200" height="350" as="geometry" />
        </mxCell>
        <mxCell id="HmWRv2XXiwyb1ps0FjEp-2" value="" style="outlineConnect=0;fontColor=#232F3E;gradientColor=#4D72F3;gradientDirection=north;fillColor=#3334B9;strokeColor=#ffffff;dashed=0;verticalLabelPosition=bottom;verticalAlign=top;align=center;html=1;fontSize=12;fontStyle=0;aspect=fixed;shape=mxgraph.aws4.resourceIcon;resIcon=mxgraph.aws4.documentdb_with_mongodb_compatibility;" parent="1" vertex="1">
          <mxGeometry x="1000" y="440" width="78" height="78" as="geometry" />
        </mxCell>
        <mxCell id="HmWRv2XXiwyb1ps0FjEp-3" value="" style="outlineConnect=0;fontColor=#232F3E;gradientColor=#4D72F3;gradientDirection=north;fillColor=#3334B9;strokeColor=#ffffff;dashed=0;verticalLabelPosition=bottom;verticalAlign=top;align=center;html=1;fontSize=12;fontStyle=0;aspect=fixed;shape=mxgraph.aws4.resourceIcon;resIcon=mxgraph.aws4.documentdb_with_mongodb_compatibility;" parent="1" vertex="1">
          <mxGeometry x="1000" y="280" width="78" height="78" as="geometry" />
        </mxCell>
        <mxCell id="HmWRv2XXiwyb1ps0FjEp-4" value="" style="outlineConnect=0;fontColor=#232F3E;gradientColor=#F78E04;gradientDirection=north;fillColor=#D05C17;strokeColor=#ffffff;dashed=0;verticalLabelPosition=bottom;verticalAlign=top;align=center;html=1;fontSize=12;fontStyle=0;aspect=fixed;shape=mxgraph.aws4.resourceIcon;resIcon=mxgraph.aws4.elastic_beanstalk;" parent="1" vertex="1">
          <mxGeometry x="681" y="375" width="78" height="78" as="geometry" />
        </mxCell>
        <mxCell id="HmWRv2XXiwyb1ps0FjEp-9" value="&lt;font style=&quot;font-size: 15px&quot; face=&quot;Verdana&quot;&gt;Apollo DB (AWS DocumentDB Cluster)&lt;/font&gt;" style="text;html=1;fillColor=none;align=center;verticalAlign=middle;whiteSpace=wrap;rounded=1;dashed=1;strokeColor=#007FFF;sketch=1;" parent="1" vertex="1">
          <mxGeometry x="977" y="600" width="140" height="60" as="geometry" />
        </mxCell>
        <mxCell id="HmWRv2XXiwyb1ps0FjEp-10" value="&lt;font style=&quot;font-size: 14px&quot; face=&quot;Verdana&quot;&gt;Private Subnet&lt;/font&gt;" style="text;html=1;fillColor=none;align=center;verticalAlign=middle;whiteSpace=wrap;rounded=0;dashed=1;strokeColor=#00CC00;" parent="1" vertex="1">
          <mxGeometry x="960" y="200" width="151" height="20" as="geometry" />
        </mxCell>
        <mxCell id="HmWRv2XXiwyb1ps0FjEp-12" value="&lt;font style=&quot;font-size: 16px&quot; face=&quot;Verdana&quot;&gt;Primary&lt;/font&gt;" style="text;html=1;fillColor=none;align=center;verticalAlign=middle;whiteSpace=wrap;rounded=0;dashed=1;strokeColor=#007FFF;" parent="1" vertex="1">
          <mxGeometry x="992" y="370" width="106" height="26" as="geometry" />
        </mxCell>
        <mxCell id="HmWRv2XXiwyb1ps0FjEp-13" value="&lt;font style=&quot;font-size: 16px&quot; face=&quot;Verdana&quot;&gt;Read Replica&lt;/font&gt;" style="text;html=1;fillColor=none;align=center;verticalAlign=middle;whiteSpace=wrap;rounded=0;dashed=1;strokeColor=#007FFF;" parent="1" vertex="1">
          <mxGeometry x="977" y="530" width="124" height="30" as="geometry" />
        </mxCell>
        <mxCell id="HmWRv2XXiwyb1ps0FjEp-14" value="&lt;font style=&quot;font-size: 15px&quot; face=&quot;Verdana&quot;&gt;Apollo API &lt;br&gt;(AWS Elastic Beanstalk)&lt;/font&gt;" style="text;html=1;fillColor=none;align=center;verticalAlign=middle;whiteSpace=wrap;rounded=1;dashed=1;strokeColor=#007FFF;sketch=1;" parent="1" vertex="1">
          <mxGeometry x="614" y="524" width="212" height="60" as="geometry" />
        </mxCell>
        <mxCell id="HmWRv2XXiwyb1ps0FjEp-16" value="&lt;font style=&quot;font-size: 14px&quot; face=&quot;Verdana&quot;&gt;Public Subnet&lt;/font&gt;" style="text;html=1;fillColor=none;align=center;verticalAlign=middle;whiteSpace=wrap;rounded=0;dashed=1;strokeColor=#00CC00;" parent="1" vertex="1">
          <mxGeometry x="650" y="290" width="151" height="20" as="geometry" />
        </mxCell>
        <mxCell id="HmWRv2XXiwyb1ps0FjEp-19" value="" style="outlineConnect=0;dashed=0;verticalLabelPosition=bottom;verticalAlign=top;align=center;html=1;shape=mxgraph.aws3.virtual_private_cloud;fillColor=#F58534;gradientColor=none;strokeColor=#00CC00;" parent="1" vertex="1">
          <mxGeometry x="620" y="130" width="70" height="44" as="geometry" />
        </mxCell>
        <mxCell id="HmWRv2XXiwyb1ps0FjEp-21" value="" style="shape=flexArrow;endArrow=classic;startArrow=classic;html=1;entryX=1;entryY=0.5;entryDx=0;entryDy=0;" parent="1" target="HmWRv2XXiwyb1ps0FjEp-15" edge="1">
          <mxGeometry width="50" height="50" relative="1" as="geometry">
            <mxPoint x="940" y="414" as="sourcePoint" />
            <mxPoint x="793" y="560" as="targetPoint" />
          </mxGeometry>
        </mxCell>
        <mxCell id="HmWRv2XXiwyb1ps0FjEp-22" value="" style="outlineConnect=0;fontColor=#232F3E;gradientColor=#945DF2;gradientDirection=north;fillColor=#5A30B5;strokeColor=#ffffff;dashed=0;verticalLabelPosition=bottom;verticalAlign=top;align=center;html=1;fontSize=12;fontStyle=0;aspect=fixed;shape=mxgraph.aws4.resourceIcon;resIcon=mxgraph.aws4.cloudfront;" parent="1" vertex="1">
          <mxGeometry x="266" y="363" width="102" height="102" as="geometry" />
        </mxCell>
        <mxCell id="HmWRv2XXiwyb1ps0FjEp-24" value="" style="shape=flexArrow;endArrow=classic;html=1;" parent="1" edge="1">
          <mxGeometry width="50" height="50" relative="1" as="geometry">
            <mxPoint x="317" y="304" as="sourcePoint" />
            <mxPoint x="316.5" y="358" as="targetPoint" />
          </mxGeometry>
        </mxCell>
        <mxCell id="HmWRv2XXiwyb1ps0FjEp-25" value="&lt;font style=&quot;font-size: 15px&quot; face=&quot;Verdana&quot;&gt;UI Demo Apps&lt;br&gt;(CloudFront Distributions)&lt;/font&gt;" style="text;html=1;fillColor=none;align=center;verticalAlign=middle;whiteSpace=wrap;rounded=1;dashed=1;strokeColor=#007FFF;sketch=1;" parent="1" vertex="1">
          <mxGeometry x="220" y="480" width="214" height="50" as="geometry" />
        </mxCell>
        <mxCell id="HmWRv2XXiwyb1ps0FjEp-26" value="" style="outlineConnect=0;fontColor=#232F3E;gradientColor=#60A337;gradientDirection=north;fillColor=#277116;strokeColor=#ffffff;dashed=0;verticalLabelPosition=bottom;verticalAlign=top;align=center;html=1;fontSize=12;fontStyle=0;aspect=fixed;shape=mxgraph.aws4.resourceIcon;resIcon=mxgraph.aws4.s3;" parent="1" vertex="1">
          <mxGeometry x="288" y="210" width="58" height="58" as="geometry" />
        </mxCell>
        <mxCell id="HmWRv2XXiwyb1ps0FjEp-32" value="" style="shape=flexArrow;endArrow=classic;startArrow=classic;html=1;" parent="1" edge="1">
          <mxGeometry width="50" height="50" relative="1" as="geometry">
            <mxPoint x="390" y="414" as="sourcePoint" />
            <mxPoint x="520" y="414" as="targetPoint" />
          </mxGeometry>
        </mxCell>
        <mxCell id="HmWRv2XXiwyb1ps0FjEp-33" value="&lt;font style=&quot;font-size: 12px&quot; face=&quot;Verdana&quot;&gt;Apollo&lt;/font&gt;" style="text;html=1;fillColor=none;align=center;verticalAlign=middle;whiteSpace=wrap;rounded=0;dashed=1;strokeColor=#007FFF;" parent="1" vertex="1">
          <mxGeometry x="276" y="280" width="82" height="16" as="geometry" />
        </mxCell>
        <mxCell id="HmWRv2XXiwyb1ps0FjEp-34" value="&lt;font style=&quot;font-size: 12px&quot; face=&quot;Verdana&quot;&gt;AO&lt;/font&gt;" style="text;html=1;fillColor=none;align=center;verticalAlign=middle;whiteSpace=wrap;rounded=1;dashed=1;strokeColor=#007FFF;sketch=1;" parent="1" vertex="1">
          <mxGeometry x="178" y="730" width="82" height="16" as="geometry" />
        </mxCell>
        <mxCell id="HmWRv2XXiwyb1ps0FjEp-37" value="" style="pointerEvents=1;shadow=0;dashed=0;html=1;strokeColor=none;labelPosition=center;verticalLabelPosition=bottom;verticalAlign=top;align=center;fillColor=#505050;shape=mxgraph.mscae.intune.user_group" parent="1" vertex="1">
          <mxGeometry x="125" y="390.5" width="50" height="37" as="geometry" />
        </mxCell>
        <mxCell id="HmWRv2XXiwyb1ps0FjEp-38" value="" style="shape=flexArrow;endArrow=classic;html=1;" parent="1" edge="1">
          <mxGeometry width="50" height="50" relative="1" as="geometry">
            <mxPoint x="190" y="413" as="sourcePoint" />
            <mxPoint x="250" y="413" as="targetPoint" />
          </mxGeometry>
        </mxCell>
        <mxCell id="zwTjNrSDl92EZhl1OhOF-2" value="" style="outlineConnect=0;fontColor=#232F3E;gradientColor=#60A337;gradientDirection=north;fillColor=#277116;strokeColor=#ffffff;dashed=0;verticalLabelPosition=bottom;verticalAlign=top;align=center;html=1;fontSize=12;fontStyle=0;aspect=fixed;shape=mxgraph.aws4.resourceIcon;resIcon=mxgraph.aws4.s3;" vertex="1" parent="1">
          <mxGeometry x="190" y="660" width="58" height="58" as="geometry" />
        </mxCell>
        <mxCell id="zwTjNrSDl92EZhl1OhOF-3" value="" style="outlineConnect=0;fontColor=#232F3E;gradientColor=#60A337;gradientDirection=north;fillColor=#277116;strokeColor=#ffffff;dashed=0;verticalLabelPosition=bottom;verticalAlign=top;align=center;html=1;fontSize=12;fontStyle=0;aspect=fixed;shape=mxgraph.aws4.resourceIcon;resIcon=mxgraph.aws4.s3;" vertex="1" parent="1">
          <mxGeometry x="288" y="660" width="58" height="58" as="geometry" />
        </mxCell>
        <mxCell id="zwTjNrSDl92EZhl1OhOF-4" value="" style="outlineConnect=0;fontColor=#232F3E;gradientColor=#60A337;gradientDirection=north;fillColor=#277116;strokeColor=#ffffff;dashed=0;verticalLabelPosition=bottom;verticalAlign=top;align=center;html=1;fontSize=12;fontStyle=0;aspect=fixed;shape=mxgraph.aws4.resourceIcon;resIcon=mxgraph.aws4.s3;" vertex="1" parent="1">
          <mxGeometry x="390" y="660" width="58" height="58" as="geometry" />
        </mxCell>
        <mxCell id="zwTjNrSDl92EZhl1OhOF-5" value="&lt;font style=&quot;font-size: 12px&quot; face=&quot;Verdana&quot;&gt;UL&lt;/font&gt;" style="text;html=1;fillColor=none;align=center;verticalAlign=middle;whiteSpace=wrap;rounded=1;dashed=1;strokeColor=#007FFF;sketch=1;" vertex="1" parent="1">
          <mxGeometry x="276" y="730" width="82" height="16" as="geometry" />
        </mxCell>
        <mxCell id="zwTjNrSDl92EZhl1OhOF-6" value="&lt;font style=&quot;font-size: 12px&quot; face=&quot;Verdana&quot;&gt;JO&lt;/font&gt;" style="text;html=1;fillColor=none;align=center;verticalAlign=middle;whiteSpace=wrap;rounded=1;dashed=1;strokeColor=#007FFF;sketch=1;" vertex="1" parent="1">
          <mxGeometry x="378" y="730" width="82" height="16" as="geometry" />
        </mxCell>
        <mxCell id="zwTjNrSDl92EZhl1OhOF-12" value="" style="shape=flexArrow;endArrow=classic;html=1;" edge="1" parent="1">
          <mxGeometry width="50" height="50" relative="1" as="geometry">
            <mxPoint x="316.5" y="620" as="sourcePoint" />
            <mxPoint x="316.5" y="540" as="targetPoint" />
          </mxGeometry>
        </mxCell>
        <mxCell id="zwTjNrSDl92EZhl1OhOF-15" value="&lt;ul&gt;&lt;li&gt;&lt;font face=&quot;Verdana&quot; style=&quot;font-size: 12px&quot;&gt;web apps will be hosted in s3 (configured as &#39;static websites&#39;)&lt;/font&gt;&lt;/li&gt;&lt;li&gt;&lt;font face=&quot;Verdana&quot; style=&quot;font-size: 12px&quot;&gt;access to web apps ONLY via CloudFront distribution URLs&lt;/font&gt;&lt;/li&gt;&lt;li&gt;&lt;font face=&quot;Verdana&quot; style=&quot;font-size: 12px&quot;&gt;direct access to S3 blocked with OAI (Origin Access Identity)&lt;/font&gt;&lt;/li&gt;&lt;li&gt;&lt;font face=&quot;Verdana&quot; style=&quot;font-size: 12px&quot;&gt;API hosted in a EB environment&lt;/font&gt;&lt;/li&gt;&lt;li&gt;&lt;font face=&quot;Verdana&quot; style=&quot;font-size: 12px&quot;&gt;Optional HA available in EB via ALB (Application Load Balancer)&lt;/font&gt;&lt;/li&gt;&lt;li&gt;&lt;font face=&quot;Verdana&quot; style=&quot;font-size: 12px&quot;&gt;Access to prod DB restricted with security groups which ONLY allows inbound traffic originating from EC2 instances managed by EB&lt;/font&gt;&lt;/li&gt;&lt;li&gt;&lt;font face=&quot;Verdana&quot; style=&quot;font-size: 12px&quot;&gt;DB is deployed in a Multi-AZ cluster&lt;/font&gt;&lt;/li&gt;&lt;/ul&gt;" style="text;fillColor=none;html=1;whiteSpace=wrap;verticalAlign=top;overflow=hidden;rounded=1;sketch=1;labelPosition=center;verticalLabelPosition=middle;align=left;dashed=1;strokeColor=#99004D;" vertex="1" parent="1">
          <mxGeometry x="30" y="10" width="410" height="180" as="geometry" />
        </mxCell>
      </root>
    </mxGraphModel>
  </diagram>
</mxfile>
